<svg width="22" height="20" viewBox="0 0 22 20" fill="none" xmlns="http://www.w3.org/2000/svg">
<path d="M13.3283 17.4934V15.8274C13.3283 14.9437 12.9772 14.0961 12.3524 13.4713C11.7275 12.8464 10.8799 12.4953 9.99622 12.4953H4.9981C4.11438 12.4953 3.26685 12.8464 2.64196 13.4713C2.01707 14.0961 1.66602 14.9437 1.66602 15.8274V17.4934" stroke="#8E8E93" stroke-width="1.24953" stroke-linecap="round" stroke-linejoin="round"/>
<path d="M7.49718 9.16323C9.33744 9.16323 10.8293 7.6714 10.8293 5.83114C10.8293 3.99089 9.33744 2.49906 7.49718 2.49906C5.65692 2.49906 4.1651 3.99089 4.1651 5.83114C4.1651 7.6714 5.65692 9.16323 7.49718 9.16323Z" stroke="#8E8E93" stroke-width="1.24953" stroke-linecap="round" stroke-linejoin="round"/>
<path d="M15.8274 6.66417V11.6623" stroke="#8E8E93" stroke-width="1.24953" stroke-linecap="round" stroke-linejoin="round"/>
<path d="M18.3264 9.16323H13.3283" stroke="#8E8E93" stroke-width="1.24953" stroke-linecap="round" stroke-linejoin="round"/>
</svg>
