<svg width="22" height="20" viewBox="0 0 22 20" fill="none" xmlns="http://www.w3.org/2000/svg">
<path d="M14.9944 6.66417C16.3746 6.66417 17.4934 5.5453 17.4934 4.16511C17.4934 2.78491 16.3746 1.66605 14.9944 1.66605C13.6142 1.66605 12.4953 2.78491 12.4953 4.16511C12.4953 5.5453 13.6142 6.66417 14.9944 6.66417Z" stroke="#8E8E93" stroke-width="1.24953" stroke-linecap="round" stroke-linejoin="round"/>
<path d="M4.99815 12.4953C6.37834 12.4953 7.49721 11.3764 7.49721 9.99625C7.49721 8.61606 6.37834 7.49719 4.99815 7.49719C3.61795 7.49719 2.49908 8.61606 2.49908 9.99625C2.49908 11.3764 3.61795 12.4953 4.99815 12.4953Z" stroke="#8E8E93" stroke-width="1.24953" stroke-linecap="round" stroke-linejoin="round"/>
<path d="M14.9944 18.3265C16.3746 18.3265 17.4934 17.2076 17.4934 15.8274C17.4934 14.4472 16.3746 13.3283 14.9944 13.3283C13.6142 13.3283 12.4953 14.4472 12.4953 15.8274C12.4953 17.2076 13.6142 18.3265 14.9944 18.3265Z" stroke="#8E8E93" stroke-width="1.24953" stroke-linecap="round" stroke-linejoin="round"/>
<path d="M7.15564 11.2541L12.8452 14.5695" stroke="#8E8E93" stroke-width="1.24953" stroke-linecap="round" stroke-linejoin="round"/>
<path d="M12.8368 5.42297L7.15564 8.7384" stroke="#8E8E93" stroke-width="1.24953" stroke-linecap="round" stroke-linejoin="round"/>
</svg>
