<svg width="45" height="45" viewBox="0 0 45 45" fill="none" xmlns="http://www.w3.org/2000/svg">
<rect x="0.5" y="0.5" width="44" height="44" rx="22" fill="#212123"/>
<rect x="0.5" y="0.5" width="44" height="44" rx="22" stroke="#22202B"/>
<path d="M35.275 24.95C35.1831 25.0189 35.0785 25.0691 34.9672 25.0976C34.8558 25.1261 34.74 25.1325 34.6263 25.1162C34.5125 25.1 34.4031 25.0615 34.3042 25.0029C34.2053 24.9444 34.1189 24.8669 34.05 24.775C33.5226 24.0661 32.8361 23.4909 32.0459 23.0958C31.2556 22.7006 30.3836 22.4966 29.5 22.5C29.3279 22.5 29.1597 22.4492 29.0163 22.3541C28.8729 22.259 28.7608 22.1237 28.6939 21.9652C28.6485 21.8575 28.6251 21.7418 28.6251 21.625C28.6251 21.5082 28.6485 21.3925 28.6939 21.2848C28.7608 21.1263 28.8729 20.991 29.0163 20.8959C29.1597 20.8008 29.3279 20.75 29.5 20.75C29.9909 20.75 30.4721 20.6122 30.8887 20.3525C31.3053 20.0927 31.6407 19.7213 31.8568 19.2805C32.0729 18.8397 32.161 18.3471 32.1112 17.8586C32.0614 17.3702 31.8756 16.9056 31.5749 16.5174C31.2743 16.1293 30.8708 15.8333 30.4103 15.663C29.9499 15.4927 29.4509 15.4549 28.97 15.554C28.4892 15.6531 28.0457 15.885 27.6901 16.2235C27.3344 16.562 27.0809 16.9934 26.9581 17.4688C26.9294 17.5801 26.879 17.6846 26.8099 17.7765C26.7407 17.8683 26.6542 17.9457 26.5552 18.0041C26.4561 18.0625 26.3466 18.1008 26.2327 18.1168C26.1189 18.1329 26.003 18.1264 25.8917 18.0977C25.7804 18.0689 25.6758 18.0186 25.584 17.9494C25.4921 17.8803 25.4148 17.7937 25.3564 17.6947C25.298 17.5957 25.2597 17.4861 25.2436 17.3723C25.2276 17.2585 25.2341 17.1426 25.2628 17.0313C25.4332 16.3721 25.755 15.7617 26.2028 15.2488C26.6505 14.7359 27.2118 14.3346 27.8419 14.0768C28.4721 13.8189 29.1537 13.7117 29.8325 13.7637C30.5114 13.8157 31.1688 14.0254 31.7523 14.3761C32.3359 14.7268 32.8295 15.2089 33.194 15.784C33.5585 16.359 33.7837 17.0112 33.8517 17.6887C33.9198 18.3661 33.8288 19.0501 33.586 19.6862C33.3432 20.3222 32.9553 20.8929 32.4531 21.3527C33.6429 21.8678 34.6772 22.6853 35.4533 23.7239C35.5222 23.8161 35.5723 23.9209 35.6007 24.0325C35.629 24.144 35.6351 24.26 35.6185 24.3739C35.602 24.4878 35.5631 24.5973 35.5041 24.6962C35.4452 24.795 35.3673 24.8813 35.275 24.95ZM29.3819 31.6875C29.4452 31.7871 29.4877 31.8985 29.5068 32.0149C29.526 32.1314 29.5214 32.2505 29.4933 32.3651C29.4652 32.4797 29.4143 32.5875 29.3435 32.6819C29.2727 32.7763 29.1835 32.8554 29.0813 32.9145C28.9792 32.9735 28.8661 33.0113 28.749 33.0255C28.6318 33.0398 28.513 33.0301 28.3997 32.9973C28.2863 32.9644 28.1808 32.9089 28.0895 32.8342C27.9981 32.7595 27.9228 32.6671 27.8681 32.5625C27.3169 31.6292 26.5319 30.8557 25.5905 30.3183C24.6491 29.781 23.5839 29.4984 22.5 29.4984C21.4161 29.4984 20.3508 29.781 19.4095 30.3183C18.4681 30.8557 17.6831 31.6292 17.1319 32.5625C17.0772 32.6671 17.0019 32.7595 16.9105 32.8342C16.8192 32.9089 16.7137 32.9644 16.6003 32.9973C16.487 33.0301 16.3682 33.0398 16.251 33.0255C16.1339 33.0113 16.0208 32.9735 15.9187 32.9145C15.8165 32.8554 15.7273 32.7763 15.6565 32.6819C15.5857 32.5875 15.5347 32.4797 15.5067 32.3651C15.4786 32.2505 15.474 32.1314 15.4931 32.0149C15.5123 31.8985 15.5548 31.7871 15.6181 31.6875C16.4664 30.2299 17.7599 29.0829 19.3084 28.415C18.4371 27.7479 17.7967 26.8244 17.4773 25.7745C17.1579 24.7246 17.1755 23.601 17.5277 22.5616C17.8799 21.5222 18.549 20.6193 19.4409 19.9799C20.3327 19.3404 21.4026 18.9965 22.5 18.9965C23.5974 18.9965 24.6673 19.3404 25.5591 19.9799C26.451 20.6193 27.1201 21.5222 27.4723 22.5616C27.8245 23.601 27.8421 24.7246 27.5227 25.7745C27.2033 26.8244 26.5629 27.7479 25.6916 28.415C27.2401 29.0829 28.5336 30.2299 29.3819 31.6875ZM22.5 27.75C23.1922 27.75 23.8689 27.5447 24.4445 27.1601C25.0201 26.7756 25.4687 26.2289 25.7336 25.5894C25.9985 24.9499 26.0678 24.2461 25.9327 23.5672C25.7977 22.8883 25.4644 22.2646 24.9749 21.7751C24.4854 21.2856 23.8617 20.9523 23.1828 20.8173C22.5039 20.6822 21.8001 20.7515 21.1606 21.0164C20.5211 21.2813 19.9744 21.7299 19.5899 22.3055C19.2053 22.8811 19 23.5578 19 24.25C19 25.1783 19.3687 26.0685 20.0251 26.7249C20.6815 27.3813 21.5717 27.75 22.5 27.75ZM16.375 21.625C16.375 21.3929 16.2828 21.1704 16.1187 21.0063C15.9546 20.8422 15.7321 20.75 15.5 20.75C15.009 20.75 14.5279 20.6122 14.1113 20.3525C13.6947 20.0927 13.3593 19.7213 13.1432 19.2805C12.9271 18.8397 12.839 18.3471 12.8888 17.8586C12.9386 17.3702 13.1244 16.9056 13.4251 16.5174C13.7257 16.1293 14.1292 15.8333 14.5897 15.663C15.0501 15.4927 15.5491 15.4549 16.03 15.554C16.5108 15.6531 16.9543 15.885 17.3099 16.2235C17.6655 16.562 17.9191 16.9934 18.0419 17.4688C18.0999 17.6936 18.2448 17.8861 18.4448 18.0041C18.6448 18.122 18.8835 18.1557 19.1083 18.0977C19.3331 18.0396 19.5256 17.8947 19.6436 17.6947C19.7615 17.4947 19.7952 17.2561 19.7372 17.0313C19.5668 16.3721 19.245 15.7617 18.7972 15.2488C18.3495 14.7359 17.7882 14.3346 17.1581 14.0768C16.5279 13.8189 15.8463 13.7117 15.1674 13.7637C14.4886 13.8157 13.8312 14.0254 13.2477 14.3761C12.6641 14.7268 12.1705 15.2089 11.806 15.784C11.4415 16.359 11.2163 17.0112 11.1483 17.6887C11.0802 18.3661 11.1712 19.0501 11.414 19.6862C11.6568 20.3222 12.0447 20.8929 12.5469 21.3527C11.3583 21.8683 10.3252 22.6857 9.55 23.7239C9.41061 23.9096 9.35069 24.143 9.3834 24.3728C9.41612 24.6026 9.5388 24.8101 9.72445 24.9495C9.9101 25.0888 10.1435 25.1488 10.3734 25.116C10.6032 25.0833 10.8106 24.9607 10.95 24.775C11.4774 24.0661 12.1639 23.4909 12.9541 23.0958C13.7444 22.7006 14.6164 22.4966 15.5 22.5C15.7321 22.5 15.9546 22.4078 16.1187 22.2437C16.2828 22.0796 16.375 21.8571 16.375 21.625Z" fill="white"/>
</svg>
