<svg width="28" height="28" viewBox="0 0 28 28" fill="none" xmlns="http://www.w3.org/2000/svg">
<path d="M26.775 16.45C26.6831 16.519 26.5785 16.5691 26.4672 16.5977C26.3558 16.6262 26.24 16.6325 26.1263 16.6162C26.0125 16.6 25.9031 16.5615 25.8042 16.5029C25.7053 16.4444 25.6189 16.367 25.55 16.275C25.0226 15.5661 24.3361 14.991 23.5459 14.5958C22.7556 14.2007 21.8836 13.9966 21 14C20.8279 14 20.6597 13.9493 20.5163 13.8541C20.3729 13.759 20.2608 13.6237 20.1939 13.4652C20.1485 13.3575 20.1251 13.2419 20.1251 13.125C20.1251 13.0082 20.1485 12.8925 20.1939 12.7849C20.2608 12.6263 20.3729 12.4911 20.5163 12.3959C20.6597 12.3008 20.8279 12.25 21 12.25C21.4909 12.25 21.9721 12.1123 22.3887 11.8525C22.8053 11.5927 23.1407 11.2213 23.3568 10.7805C23.5729 10.3397 23.661 9.84708 23.6112 9.35866C23.5614 8.87024 23.3756 8.40558 23.0749 8.01746C22.7743 7.62934 22.3708 7.33332 21.9103 7.16302C21.4499 6.99272 20.9509 6.95496 20.47 7.05405C19.9892 7.15313 19.5457 7.38507 19.1901 7.72354C18.8344 8.062 18.5809 8.49342 18.4581 8.96878C18.4294 9.0801 18.379 9.18467 18.3099 9.27651C18.2407 9.36836 18.1542 9.4457 18.0552 9.5041C17.9561 9.5625 17.8466 9.60082 17.7327 9.61688C17.6189 9.63294 17.503 9.62642 17.3917 9.59769C17.2804 9.56896 17.1758 9.51859 17.084 9.44945C16.9921 9.38031 16.9148 9.29376 16.8564 9.19474C16.798 9.09571 16.7597 8.98615 16.7436 8.87232C16.7276 8.75848 16.7341 8.6426 16.7628 8.53128C16.9332 7.87209 17.255 7.26176 17.7028 6.74885C18.1505 6.23594 18.7118 5.83461 19.3419 5.57679C19.9721 5.31897 20.6537 5.21178 21.3325 5.26374C22.0114 5.3157 22.6688 5.52539 23.2523 5.87611C23.8359 6.22683 24.3295 6.70891 24.694 7.28399C25.0585 7.85907 25.2837 8.51127 25.3517 9.18871C25.4198 9.86615 25.3288 10.5501 25.086 11.1862C24.8432 11.8223 24.4553 12.3929 23.9531 12.8527C25.1429 13.3678 26.1772 14.1853 26.9533 15.2239C27.0222 15.3161 27.0723 15.421 27.1007 15.5325C27.129 15.644 27.1351 15.7601 27.1185 15.874C27.102 15.9879 27.0631 16.0974 27.0041 16.1962C26.9452 16.2951 26.8673 16.3813 26.775 16.45ZM20.8819 23.1875C20.9452 23.2871 20.9877 23.3985 21.0068 23.5149C21.026 23.6314 21.0214 23.7505 20.9933 23.8651C20.9652 23.9797 20.9143 24.0875 20.8435 24.1819C20.7727 24.2763 20.6835 24.3554 20.5813 24.4145C20.4792 24.4736 20.3661 24.5113 20.249 24.5256C20.1318 24.5398 20.013 24.5302 19.8997 24.4973C19.7863 24.4644 19.6808 24.409 19.5895 24.3342C19.4981 24.2595 19.4228 24.1671 19.3681 24.0625C18.8169 23.1292 18.0319 22.3557 17.0905 21.8184C16.1491 21.281 15.0839 20.9984 14 20.9984C12.9161 20.9984 11.8508 21.281 10.9095 21.8184C9.96809 22.3557 9.18307 23.1292 8.63187 24.0625C8.57717 24.1671 8.50188 24.2595 8.41054 24.3342C8.31919 24.409 8.21368 24.4644 8.10034 24.4973C7.987 24.5302 7.86819 24.5398 7.75104 24.5256C7.63389 24.5113 7.52083 24.4736 7.41866 24.4145C7.31649 24.3554 7.22732 24.2763 7.15652 24.1819C7.08572 24.0875 7.03475 23.9797 7.00667 23.8651C6.9786 23.7505 6.974 23.6314 6.99315 23.5149C7.0123 23.3985 7.05481 23.2871 7.11812 23.1875C7.96643 21.73 9.2599 20.583 10.8084 19.915C9.93707 19.2479 9.29668 18.3245 8.97728 17.2745C8.65787 16.2246 8.67551 15.101 9.02772 14.0616C9.37992 13.0222 10.049 12.1194 10.9409 11.4799C11.8327 10.8404 12.9026 10.4965 14 10.4965C15.0974 10.4965 16.1673 10.8404 17.0591 11.4799C17.951 12.1194 18.6201 13.0222 18.9723 14.0616C19.3245 15.101 19.3421 16.2246 19.0227 17.2745C18.7033 18.3245 18.0629 19.2479 17.1916 19.915C18.7401 20.583 20.0336 21.73 20.8819 23.1875ZM14 19.25C14.6922 19.25 15.3689 19.0448 15.9445 18.6602C16.5201 18.2756 16.9687 17.729 17.2336 17.0894C17.4985 16.4499 17.5678 15.7462 17.4327 15.0672C17.2977 14.3883 16.9644 13.7646 16.4749 13.2752C15.9854 12.7857 15.3617 12.4523 14.6828 12.3173C14.0039 12.1822 13.3001 12.2515 12.6606 12.5165C12.0211 12.7814 11.4744 13.23 11.0899 13.8055C10.7053 14.3811 10.5 15.0578 10.5 15.75C10.5 16.6783 10.8687 17.5685 11.5251 18.2249C12.1815 18.8813 13.0717 19.25 14 19.25ZM7.875 13.125C7.875 12.893 7.78281 12.6704 7.61871 12.5063C7.45462 12.3422 7.23206 12.25 7 12.25C6.50904 12.25 6.02794 12.1123 5.61134 11.8525C5.19473 11.5927 4.85933 11.2213 4.64322 10.7805C4.42711 10.3397 4.33896 9.84708 4.38878 9.35866C4.43859 8.87024 4.62439 8.40558 4.92505 8.01746C5.22571 7.62934 5.6292 7.33332 6.08967 7.16302C6.55014 6.99272 7.04914 6.95496 7.52999 7.05405C8.01084 7.15313 8.45427 7.38507 8.80991 7.72354C9.16554 8.062 9.41913 8.49342 9.54187 8.96878C9.59989 9.19359 9.74483 9.38615 9.94482 9.5041C10.1448 9.62204 10.3835 9.6557 10.6083 9.59769C10.8331 9.53967 11.0256 9.39473 11.1436 9.19474C11.2615 8.99475 11.2952 8.75609 11.2372 8.53128C11.0668 7.87209 10.745 7.26176 10.2972 6.74885C9.84948 6.23594 9.28821 5.83461 8.65807 5.57679C8.02793 5.31897 7.34631 5.21178 6.66745 5.26374C5.98859 5.3157 5.33123 5.52539 4.74767 5.87611C4.1641 6.22683 3.67045 6.70891 3.30599 7.28399C2.94152 7.85907 2.71631 8.51127 2.64826 9.18871C2.58021 9.86615 2.67121 10.5501 2.91401 11.1862C3.15682 11.8223 3.54472 12.3929 4.04687 12.8527C2.85827 13.3683 1.82515 14.1858 1.05 15.2239C0.910613 15.4096 0.850687 15.643 0.883404 15.8728C0.91612 16.1027 1.0388 16.3101 1.22445 16.4495C1.4101 16.5889 1.64352 16.6488 1.87335 16.6161C2.10319 16.5834 2.31061 16.4607 2.45 16.275C2.97739 15.5661 3.66386 14.991 4.45414 14.5958C5.24442 14.2007 6.11644 13.9966 7 14C7.23206 14 7.45462 13.9078 7.61871 13.7438C7.78281 13.5797 7.875 13.3571 7.875 13.125Z" fill="white"/>
</svg>
