<svg width="22" height="20" viewBox="0 0 22 20" fill="none" xmlns="http://www.w3.org/2000/svg">
<path d="M13.3283 17.4934V15.8274C13.3283 14.9437 12.9772 14.0961 12.3524 13.4713C11.7275 12.8464 10.8799 12.4953 9.99622 12.4953H4.9981C4.11438 12.4953 3.26685 12.8464 2.64196 13.4713C2.01707 14.0961 1.66602 14.9437 1.66602 15.8274V17.4934" stroke="#8E8E93" stroke-width="1.24953" stroke-linecap="round" stroke-linejoin="round"/>
<path d="M7.49718 9.16323C9.33744 9.16323 10.8293 7.67141 10.8293 5.83115C10.8293 3.99089 9.33744 2.49906 7.49718 2.49906C5.65692 2.49906 4.1651 3.99089 4.1651 5.83115C4.1651 7.67141 5.65692 9.16323 7.49718 9.16323Z" stroke="#8E8E93" stroke-width="1.24953" stroke-linecap="round" stroke-linejoin="round"/>
<path d="M18.3265 17.4934V15.8274C18.3259 15.0891 18.0802 14.3719 17.6279 13.7884C17.1755 13.2049 16.5422 12.7882 15.8274 12.6036" stroke="#8E8E93" stroke-width="1.24953" stroke-linecap="round" stroke-linejoin="round"/>
<path d="M13.3283 2.60736C14.0451 2.79087 14.6803 3.20771 15.134 3.79217C15.5877 4.37662 15.8339 5.09545 15.8339 5.83531C15.8339 6.57518 15.5877 7.294 15.134 7.87845C14.6803 8.46291 14.0451 8.87975 13.3283 9.06327" stroke="#8E8E93" stroke-width="1.24953" stroke-linecap="round" stroke-linejoin="round"/>
</svg>
